<?xml version="1.0" encoding="iso-8859-1"?>
<!-- Generator: Adobe Illustrator 23.0.2, SVG Export Plug-In . SVG Version: 6.00 Build 0)  -->
<svg version="1.1" id="Layer_1" xmlns="http://www.w3.org/2000/svg" xmlns:xlink="http://www.w3.org/1999/xlink" x="0px" y="0px"
	 viewBox="0 0 64 64" style="enable-background:new 0 0 64 64;" xml:space="preserve">
<g>
	<linearGradient id="SVGID_1_" gradientUnits="userSpaceOnUse" x1="32.3544" y1="97.4003" x2="32.3544" y2="9.2866">
		<stop  offset="0.0176" style="stop-color:#EDD7AD"/>
		<stop  offset="0.5207" style="stop-color:#FF9661"/>
		<stop  offset="1" style="stop-color:#E74A69"/>
	</linearGradient>
	<circle style="fill:url(#SVGID_1_);" cx="32.354" cy="32.15" r="28"/>
	<g>
		<g>
			<linearGradient id="SVGID_2_" gradientUnits="userSpaceOnUse" x1="49.8212" y1="49.2099" x2="49.8212" y2="-11.0878">
				<stop  offset="0.0176" style="stop-color:#EDD7AD"/>
				<stop  offset="0.5207" style="stop-color:#FF9661"/>
				<stop  offset="1" style="stop-color:#E74A69"/>
			</linearGradient>
			<path style="fill:url(#SVGID_2_);" d="M60.354,32.15c0-5.964-1.871-11.489-5.049-16.031H41.069c-0.984,0-1.781,0.798-1.781,1.781
				v21.87h20.008C59.98,37.347,60.354,34.793,60.354,32.15z"/>
			<g>
				
					<linearGradient id="SVGID_3_" gradientUnits="userSpaceOnUse" x1="1255.2524" y1="33.9111" x2="1255.2524" y2="-11.1039" gradientTransform="matrix(-1 0 0 1 1304 0)">
					<stop  offset="0.0176" style="stop-color:#EDD7AD"/>
					<stop  offset="0.5207" style="stop-color:#FF9661"/>
					<stop  offset="1" style="stop-color:#E74A69"/>
				</linearGradient>
				<path style="fill:url(#SVGID_3_);" d="M57.355,25.934c0,0-3.369,0.629-5.333,0.215s-2.989,0.444-4.315-0.14
					c-1.326-0.584-2.463,0.183-2.836,0.738c-0.373,0.555-1.371,0-2.119,0.494c-0.748,0.493-2.612,0.45-2.612,0.45
					S45.821,29.498,57.355,25.934z"/>
				
					<linearGradient id="SVGID_4_" gradientUnits="userSpaceOnUse" x1="1251.7709" y1="33.9109" x2="1251.7709" y2="-11.1031" gradientTransform="matrix(-1 0 0 1 1304 0)">
					<stop  offset="0.0176" style="stop-color:#EDD7AD"/>
					<stop  offset="0.5207" style="stop-color:#FF9661"/>
					<stop  offset="1" style="stop-color:#E74A69"/>
				</linearGradient>
				<path style="fill:url(#SVGID_4_);" d="M57.005,21.831c0,0-1.853,0.435-2.978,0.159c-1.126-0.276-1.651,0.308-2.428-0.085
					c-0.778-0.393-1.371,0.13-1.548,0.508c-0.177,0.378-0.769,0.003-1.16,0.34s-1.438,0.312-1.438,0.312
					S50.744,24.277,57.005,21.831z"/>
				
					<linearGradient id="SVGID_5_" gradientUnits="userSpaceOnUse" x1="1261.7375" y1="33.9111" x2="1261.7375" y2="-11.1037" gradientTransform="matrix(-1 0 0 1 1304 0)">
					<stop  offset="0.0176" style="stop-color:#EDD7AD"/>
					<stop  offset="0.5207" style="stop-color:#FF9661"/>
					<stop  offset="1" style="stop-color:#E74A69"/>
				</linearGradient>
				<path style="fill:url(#SVGID_5_);" d="M39.494,23.824c0,0,3.784,0.622,5.538-0.15c0,0-1.086-0.173-1.519-0.513
					c-0.433-0.34-1.393-0.414-1.782-0.038c-0.389,0.377-0.577-0.293-1.015,0.07C40.278,23.557,39.494,23.824,39.494,23.824z"/>
				
					<linearGradient id="SVGID_6_" gradientUnits="userSpaceOnUse" x1="1251.1128" y1="33.9114" x2="1251.1128" y2="-11.1043" gradientTransform="matrix(-1 0 0 1 1304 0)">
					<stop  offset="0.0176" style="stop-color:#EDD7AD"/>
					<stop  offset="0.5207" style="stop-color:#FF9661"/>
					<stop  offset="1" style="stop-color:#E74A69"/>
				</linearGradient>
				<path style="fill:url(#SVGID_6_);" d="M51.736,19.229c0,0,1.662-0.129,2.303-0.551c0,0-0.476,0.039-0.699-0.038
					c-0.223-0.077-0.634-0.016-0.751,0.148c-0.117,0.164-0.277-0.048-0.417,0.116C52.032,19.067,51.736,19.229,51.736,19.229z"/>
			</g>
			<linearGradient id="SVGID_7_" gradientUnits="userSpaceOnUse" x1="59.9831" y1="37.2247" x2="59.9831" y2="35.1801">
				<stop  offset="0.0176" style="stop-color:#EDD7AD"/>
				<stop  offset="0.5207" style="stop-color:#FF9661"/>
				<stop  offset="1" style="stop-color:#E74A69"/>
			</linearGradient>
			<path style="fill:url(#SVGID_7_);" d="M60.093,35.935h-0.094L59.874,37.3C59.958,36.849,60.031,36.394,60.093,35.935z"/>
			<linearGradient id="SVGID_8_" gradientUnits="userSpaceOnUse" x1="49.8212" y1="43.6078" x2="49.8212" y2="24.8516">
				<stop  offset="0.0176" style="stop-color:#EDD7AD"/>
				<stop  offset="0.5207" style="stop-color:#FF9661"/>
				<stop  offset="1" style="stop-color:#E74A69"/>
			</linearGradient>
			<path style="fill:url(#SVGID_8_);" d="M60.354,32.15c0-0.997-0.054-1.982-0.156-2.953v4.72h-1.204
				c-0.306,0-0.555,0.248-0.555,0.555v1.145h-4.22v-2.972c0-0.338-0.274-0.612-0.612-0.612h-3.344V30.2
				c0-1.7-1.378-3.078-3.078-3.078H43.83v7.922h-4.542v4.728h20.008C59.98,37.347,60.354,34.793,60.354,32.15z"/>
			
				<linearGradient id="SVGID_9_" gradientUnits="userSpaceOnUse" x1="1249.6469" y1="39.5075" x2="1249.6469" y2="22.3615" gradientTransform="matrix(-1 0 0 1 1304 0)">
				<stop  offset="0.0176" style="stop-color:#EDD7AD"/>
				<stop  offset="0.5207" style="stop-color:#FF9661"/>
				<stop  offset="1" style="stop-color:#E74A69"/>
			</linearGradient>
			<path style="fill:url(#SVGID_9_);" d="M53.607,32.034c0.338,0,0.612,0.274,0.612,0.612v2.972h4.22l0.003,0.154
				c0.028,1.501-1.181,2.732-2.681,2.732h-1.82v-1.123h-3.678v-5.347H53.607z"/>
		</g>
		<g>
			<linearGradient id="SVGID_10_" gradientUnits="userSpaceOnUse" x1="21.066" y1="49.2099" x2="21.066" y2="-11.0878">
				<stop  offset="0.0176" style="stop-color:#EDD7AD"/>
				<stop  offset="0.5207" style="stop-color:#FF9661"/>
				<stop  offset="1" style="stop-color:#E74A69"/>
			</linearGradient>
			<path style="fill:url(#SVGID_10_);" d="M35.996,16.12H9.403C6.225,20.662,4.354,26.186,4.354,32.15
				c0,2.643,0.374,5.197,1.058,7.621h32.365v-21.87C37.778,16.917,36.98,16.12,35.996,16.12z"/>
			<g>
				<linearGradient id="SVGID_11_" gradientUnits="userSpaceOnUse" x1="11.7538" y1="35.5466" x2="11.7538" y2="-3.5354">
					<stop  offset="0.0176" style="stop-color:#EDD7AD"/>
					<stop  offset="0.5207" style="stop-color:#FF9661"/>
					<stop  offset="1" style="stop-color:#E74A69"/>
				</linearGradient>
				<path style="fill:url(#SVGID_11_);" d="M16.439,23.458c-3.798-1.27-6.987-3.313-7.906-4.661
					c-0.146-0.214-0.312-0.375-0.485-0.515c-0.35,0.611-0.676,1.236-0.98,1.875C12.377,22.307,16.439,23.458,16.439,23.458z"/>
				<linearGradient id="SVGID_12_" gradientUnits="userSpaceOnUse" x1="8.4752" y1="32.6417" x2="8.4752" y2="5.9028">
					<stop  offset="0.0176" style="stop-color:#EDD7AD"/>
					<stop  offset="0.5207" style="stop-color:#FF9661"/>
					<stop  offset="1" style="stop-color:#E74A69"/>
				</linearGradient>
				<path style="fill:url(#SVGID_12_);" d="M11.443,25.222c-2.029-0.283-3.824-1.011-4.412-1.603
					c-0.274-0.275-0.717-0.433-1.149-0.555c-0.134,0.39-0.258,0.784-0.375,1.182C8.825,24.982,11.443,25.222,11.443,25.222z"/>
				
					<linearGradient id="SVGID_13_" gradientUnits="userSpaceOnUse" x1="1274.5782" y1="40.5944" x2="1274.5782" y2="-14.8066" gradientTransform="matrix(-1 0 0 1 1304 0)">
					<stop  offset="0.0176" style="stop-color:#EDD7AD"/>
					<stop  offset="0.5207" style="stop-color:#FF9661"/>
					<stop  offset="1" style="stop-color:#E74A69"/>
				</linearGradient>
				<path style="fill:url(#SVGID_13_);" d="M20.814,25.934c0,0,3.369,0.629,5.333,0.215s2.989,0.444,4.315-0.14
					c1.326-0.584,2.463,0.183,2.836,0.738c0.373,0.555,1.371,0,2.119,0.494c0.748,0.493,2.612,0.45,2.612,0.45
					S32.348,29.498,20.814,25.934z"/>
				
					<linearGradient id="SVGID_14_" gradientUnits="userSpaceOnUse" x1="1272.4707" y1="40.5944" x2="1272.4707" y2="-14.8067" gradientTransform="matrix(-1 0 0 1 1304 0)">
					<stop  offset="0.0176" style="stop-color:#EDD7AD"/>
					<stop  offset="0.5207" style="stop-color:#FF9661"/>
					<stop  offset="1" style="stop-color:#E74A69"/>
				</linearGradient>
				<path style="fill:url(#SVGID_14_);" d="M26.753,22.631c0,0,1.853,0.435,2.978,0.159c1.125-0.276,1.65,0.308,2.428-0.085
					c0.778-0.394,1.371,0.13,1.548,0.508c0.177,0.378,0.769,0.003,1.16,0.34c0.391,0.337,1.438,0.312,1.438,0.312
					S33.014,25.077,26.753,22.631z"/>
				
					<linearGradient id="SVGID_15_" gradientUnits="userSpaceOnUse" x1="1278.4805" y1="40.5938" x2="1278.4805" y2="-14.8053" gradientTransform="matrix(-1 0 0 1 1304 0)">
					<stop  offset="0.0176" style="stop-color:#EDD7AD"/>
					<stop  offset="0.5207" style="stop-color:#FF9661"/>
					<stop  offset="1" style="stop-color:#E74A69"/>
				</linearGradient>
				<path style="fill:url(#SVGID_15_);" d="M28.22,19.468c0,0-3.832-0.132-5.401-1.233c0,0,1.099,0.043,1.59-0.205
					c0.491-0.248,1.447-0.133,1.754,0.313c0.307,0.446,0.623-0.174,0.982,0.268C27.504,19.052,28.22,19.468,28.22,19.468z"/>
				
					<linearGradient id="SVGID_16_" gradientUnits="userSpaceOnUse" x1="1286.5853" y1="40.5942" x2="1286.5853" y2="-14.806" gradientTransform="matrix(-1 0 0 1 1304 0)">
					<stop  offset="0.0176" style="stop-color:#EDD7AD"/>
					<stop  offset="0.5207" style="stop-color:#FF9661"/>
					<stop  offset="1" style="stop-color:#E74A69"/>
				</linearGradient>
				<path style="fill:url(#SVGID_16_);" d="M15.817,18.775c0,0,2.163,0.721,3.196,0.531c0,0-0.621-0.205-0.861-0.42
					c-0.24-0.215-0.791-0.357-1.026-0.213c-0.235,0.144-0.324-0.208-0.587-0.076C16.276,18.729,15.817,18.775,15.817,18.775z"/>
				
					<linearGradient id="SVGID_17_" gradientUnits="userSpaceOnUse" x1="1287.797" y1="40.5943" x2="1287.797" y2="-14.8059" gradientTransform="matrix(-1 0 0 1 1304 0)">
					<stop  offset="0.0176" style="stop-color:#EDD7AD"/>
					<stop  offset="0.5207" style="stop-color:#FF9661"/>
					<stop  offset="1" style="stop-color:#E74A69"/>
				</linearGradient>
				<path style="fill:url(#SVGID_17_);" d="M14.605,25.191c0,0,2.163,0.721,3.196,0.531c0,0-0.621-0.205-0.861-0.42
					c-0.24-0.215-0.791-0.357-1.026-0.213c-0.235,0.144-0.324-0.208-0.587-0.076C15.065,25.144,14.605,25.191,14.605,25.191z"/>
				
					<linearGradient id="SVGID_18_" gradientUnits="userSpaceOnUse" x1="1269.8545" y1="40.5966" x2="1269.8545" y2="-14.8096" gradientTransform="matrix(-1 0 0 1 1304 0)">
					<stop  offset="0.0176" style="stop-color:#EDD7AD"/>
					<stop  offset="0.5207" style="stop-color:#FF9661"/>
					<stop  offset="1" style="stop-color:#E74A69"/>
				</linearGradient>
				<path style="fill:url(#SVGID_18_);" d="M35.328,17.959c0,0-1.657,0.181-2.365-0.114c0,0,0.475-0.05,0.68-0.167
					c0.205-0.117,0.62-0.133,0.766,0.006c0.146,0.139,0.264-0.098,0.431,0.036C35.007,17.854,35.328,17.959,35.328,17.959z"/>
			</g>
			<linearGradient id="SVGID_19_" gradientUnits="userSpaceOnUse" x1="10.8864" y1="39.0932" x2="10.8864" y2="20.7787">
				<stop  offset="0.0176" style="stop-color:#EDD7AD"/>
				<stop  offset="0.5207" style="stop-color:#FF9661"/>
				<stop  offset="1" style="stop-color:#E74A69"/>
			</linearGradient>
			<path style="fill:url(#SVGID_19_);" d="M17.067,35.935H7.629v-4.013H6.398v-2.658c0-0.931-0.738-1.685-1.66-1.722
				c-0.248,1.5-0.384,3.038-0.384,4.609c0,2.643,0.374,5.197,1.058,7.621h12.006L17.067,35.935z"/>
			<linearGradient id="SVGID_20_" gradientUnits="userSpaceOnUse" x1="21.3593" y1="46.0854" x2="21.3593" y2="15.2162">
				<stop  offset="0.0176" style="stop-color:#EDD7AD"/>
				<stop  offset="0.5207" style="stop-color:#FF9661"/>
				<stop  offset="1" style="stop-color:#E74A69"/>
			</linearGradient>
			<path style="fill:url(#SVGID_20_);" d="M33.236,18.953h-0.053c-3.524,0-6.38,2.857-6.38,6.38v6.701h-3.344
				c-0.338,0-0.612,0.274-0.612,0.612v2.972h-4.22v-1.145c0-0.306-0.248-0.555-0.555-0.555h-1.204v-6.706
				c0-0.294-0.238-0.532-0.532-0.532H9.399c-0.294,0-0.532,0.238-0.532,0.532V37.87H4.941c0.134,0.643,0.295,1.275,0.472,1.901
				h32.365v-4.728h-4.542V18.953z"/>
			<g>
				<g>
					
						<linearGradient id="SVGID_21_" gradientUnits="userSpaceOnUse" x1="3756.439" y1="41.7409" x2="3756.439" y2="13.6716" gradientTransform="matrix(1 0 0 1 -3745.834 0)">
						<stop  offset="0.0176" style="stop-color:#EDD7AD"/>
						<stop  offset="0.5207" style="stop-color:#FF9661"/>
						<stop  offset="1" style="stop-color:#E74A69"/>
					</linearGradient>
					<path style="fill:url(#SVGID_21_);" d="M10.892,28.212h-0.573c-0.029,0-0.052-0.023-0.052-0.052v-0.573
						c0-0.029,0.023-0.052,0.052-0.052h0.573c0.029,0,0.052,0.024,0.052,0.052v0.573C10.944,28.188,10.92,28.212,10.892,28.212z"/>
					
						<linearGradient id="SVGID_22_" gradientUnits="userSpaceOnUse" x1="3757.613" y1="41.7409" x2="3757.613" y2="13.6716" gradientTransform="matrix(1 0 0 1 -3745.834 0)">
						<stop  offset="0.0176" style="stop-color:#EDD7AD"/>
						<stop  offset="0.5207" style="stop-color:#FF9661"/>
						<stop  offset="1" style="stop-color:#E74A69"/>
					</linearGradient>
					<path style="fill:url(#SVGID_22_);" d="M12.066,28.212h-0.573c-0.029,0-0.052-0.023-0.052-0.052v-0.573
						c0-0.029,0.023-0.052,0.052-0.052h0.573c0.029,0,0.052,0.024,0.052,0.052v0.573C12.118,28.188,12.094,28.212,12.066,28.212z"/>
					
						<linearGradient id="SVGID_23_" gradientUnits="userSpaceOnUse" x1="3758.7871" y1="41.7409" x2="3758.7871" y2="13.6716" gradientTransform="matrix(1 0 0 1 -3745.834 0)">
						<stop  offset="0.0176" style="stop-color:#EDD7AD"/>
						<stop  offset="0.5207" style="stop-color:#FF9661"/>
						<stop  offset="1" style="stop-color:#E74A69"/>
					</linearGradient>
					<path style="fill:url(#SVGID_23_);" d="M13.24,28.212h-0.573c-0.029,0-0.052-0.023-0.052-0.052v-0.573
						c0-0.029,0.024-0.052,0.052-0.052h0.573c0.029,0,0.052,0.024,0.052,0.052v0.573C13.292,28.188,13.268,28.212,13.24,28.212z"/>
					
						<linearGradient id="SVGID_24_" gradientUnits="userSpaceOnUse" x1="3759.9609" y1="41.7409" x2="3759.9609" y2="13.6716" gradientTransform="matrix(1 0 0 1 -3745.834 0)">
						<stop  offset="0.0176" style="stop-color:#EDD7AD"/>
						<stop  offset="0.5207" style="stop-color:#FF9661"/>
						<stop  offset="1" style="stop-color:#E74A69"/>
					</linearGradient>
					<path style="fill:url(#SVGID_24_);" d="M14.414,28.212h-0.573c-0.029,0-0.052-0.023-0.052-0.052v-0.573
						c0-0.029,0.024-0.052,0.052-0.052h0.573c0.029,0,0.052,0.024,0.052,0.052v0.573C14.466,28.188,14.442,28.212,14.414,28.212z"/>
					
						<linearGradient id="SVGID_25_" gradientUnits="userSpaceOnUse" x1="3761.135" y1="41.7409" x2="3761.135" y2="13.6716" gradientTransform="matrix(1 0 0 1 -3745.834 0)">
						<stop  offset="0.0176" style="stop-color:#EDD7AD"/>
						<stop  offset="0.5207" style="stop-color:#FF9661"/>
						<stop  offset="1" style="stop-color:#E74A69"/>
					</linearGradient>
					<path style="fill:url(#SVGID_25_);" d="M15.588,28.212h-0.573c-0.029,0-0.052-0.023-0.052-0.052v-0.573
						c0-0.029,0.023-0.052,0.052-0.052h0.573c0.029,0,0.052,0.024,0.052,0.052v0.573C15.64,28.188,15.616,28.212,15.588,28.212z"/>
				</g>
				<g>
					
						<linearGradient id="SVGID_26_" gradientUnits="userSpaceOnUse" x1="3756.439" y1="41.741" x2="3756.439" y2="13.6717" gradientTransform="matrix(1 0 0 1 -3745.834 0)">
						<stop  offset="0.0176" style="stop-color:#EDD7AD"/>
						<stop  offset="0.5207" style="stop-color:#FF9661"/>
						<stop  offset="1" style="stop-color:#E74A69"/>
					</linearGradient>
					<path style="fill:url(#SVGID_26_);" d="M10.892,29.449h-0.573c-0.029,0-0.052-0.024-0.052-0.052v-0.573
						c0-0.029,0.023-0.052,0.052-0.052h0.573c0.029,0,0.052,0.023,0.052,0.052v0.573C10.944,29.425,10.92,29.449,10.892,29.449z"/>
					
						<linearGradient id="SVGID_27_" gradientUnits="userSpaceOnUse" x1="3757.613" y1="41.741" x2="3757.613" y2="13.6717" gradientTransform="matrix(1 0 0 1 -3745.834 0)">
						<stop  offset="0.0176" style="stop-color:#EDD7AD"/>
						<stop  offset="0.5207" style="stop-color:#FF9661"/>
						<stop  offset="1" style="stop-color:#E74A69"/>
					</linearGradient>
					<path style="fill:url(#SVGID_27_);" d="M12.066,29.449h-0.573c-0.029,0-0.052-0.024-0.052-0.052v-0.573
						c0-0.029,0.023-0.052,0.052-0.052h0.573c0.029,0,0.052,0.023,0.052,0.052v0.573C12.118,29.425,12.094,29.449,12.066,29.449z"/>
					
						<linearGradient id="SVGID_28_" gradientUnits="userSpaceOnUse" x1="3758.7871" y1="41.741" x2="3758.7871" y2="13.6717" gradientTransform="matrix(1 0 0 1 -3745.834 0)">
						<stop  offset="0.0176" style="stop-color:#EDD7AD"/>
						<stop  offset="0.5207" style="stop-color:#FF9661"/>
						<stop  offset="1" style="stop-color:#E74A69"/>
					</linearGradient>
					<path style="fill:url(#SVGID_28_);" d="M13.24,29.449h-0.573c-0.029,0-0.052-0.024-0.052-0.052v-0.573
						c0-0.029,0.024-0.052,0.052-0.052h0.573c0.029,0,0.052,0.023,0.052,0.052v0.573C13.292,29.425,13.268,29.449,13.24,29.449z"/>
					
						<linearGradient id="SVGID_29_" gradientUnits="userSpaceOnUse" x1="3759.9609" y1="41.741" x2="3759.9609" y2="13.6717" gradientTransform="matrix(1 0 0 1 -3745.834 0)">
						<stop  offset="0.0176" style="stop-color:#EDD7AD"/>
						<stop  offset="0.5207" style="stop-color:#FF9661"/>
						<stop  offset="1" style="stop-color:#E74A69"/>
					</linearGradient>
					<path style="fill:url(#SVGID_29_);" d="M14.414,29.449h-0.573c-0.029,0-0.052-0.024-0.052-0.052v-0.573
						c0-0.029,0.024-0.052,0.052-0.052h0.573c0.029,0,0.052,0.023,0.052,0.052v0.573C14.466,29.425,14.442,29.449,14.414,29.449z"/>
					
						<linearGradient id="SVGID_30_" gradientUnits="userSpaceOnUse" x1="3761.135" y1="41.741" x2="3761.135" y2="13.6717" gradientTransform="matrix(1 0 0 1 -3745.834 0)">
						<stop  offset="0.0176" style="stop-color:#EDD7AD"/>
						<stop  offset="0.5207" style="stop-color:#FF9661"/>
						<stop  offset="1" style="stop-color:#E74A69"/>
					</linearGradient>
					<path style="fill:url(#SVGID_30_);" d="M15.588,29.449h-0.573c-0.029,0-0.052-0.024-0.052-0.052v-0.573
						c0-0.029,0.023-0.052,0.052-0.052h0.573c0.029,0,0.052,0.023,0.052,0.052v0.573C15.64,29.425,15.616,29.449,15.588,29.449z"/>
				</g>
				<g>
					
						<linearGradient id="SVGID_31_" gradientUnits="userSpaceOnUse" x1="3756.439" y1="41.741" x2="3756.439" y2="13.6717" gradientTransform="matrix(1 0 0 1 -3745.834 0)">
						<stop  offset="0.0176" style="stop-color:#EDD7AD"/>
						<stop  offset="0.5207" style="stop-color:#FF9661"/>
						<stop  offset="1" style="stop-color:#E74A69"/>
					</linearGradient>
					<path style="fill:url(#SVGID_31_);" d="M10.892,30.685h-0.573c-0.029,0-0.052-0.023-0.052-0.052V30.06
						c0-0.029,0.023-0.052,0.052-0.052h0.573c0.029,0,0.052,0.024,0.052,0.052v0.573C10.944,30.662,10.92,30.685,10.892,30.685z"/>
					
						<linearGradient id="SVGID_32_" gradientUnits="userSpaceOnUse" x1="3757.613" y1="41.741" x2="3757.613" y2="13.6717" gradientTransform="matrix(1 0 0 1 -3745.834 0)">
						<stop  offset="0.0176" style="stop-color:#EDD7AD"/>
						<stop  offset="0.5207" style="stop-color:#FF9661"/>
						<stop  offset="1" style="stop-color:#E74A69"/>
					</linearGradient>
					<path style="fill:url(#SVGID_32_);" d="M12.066,30.685h-0.573c-0.029,0-0.052-0.023-0.052-0.052V30.06
						c0-0.029,0.023-0.052,0.052-0.052h0.573c0.029,0,0.052,0.024,0.052,0.052v0.573C12.118,30.662,12.094,30.685,12.066,30.685z"/>
					
						<linearGradient id="SVGID_33_" gradientUnits="userSpaceOnUse" x1="3758.7871" y1="41.741" x2="3758.7871" y2="13.6717" gradientTransform="matrix(1 0 0 1 -3745.834 0)">
						<stop  offset="0.0176" style="stop-color:#EDD7AD"/>
						<stop  offset="0.5207" style="stop-color:#FF9661"/>
						<stop  offset="1" style="stop-color:#E74A69"/>
					</linearGradient>
					<path style="fill:url(#SVGID_33_);" d="M13.24,30.685h-0.573c-0.029,0-0.052-0.023-0.052-0.052V30.06
						c0-0.029,0.024-0.052,0.052-0.052h0.573c0.029,0,0.052,0.024,0.052,0.052v0.573C13.292,30.662,13.268,30.685,13.24,30.685z"/>
					
						<linearGradient id="SVGID_34_" gradientUnits="userSpaceOnUse" x1="3759.9609" y1="41.741" x2="3759.9609" y2="13.6717" gradientTransform="matrix(1 0 0 1 -3745.834 0)">
						<stop  offset="0.0176" style="stop-color:#EDD7AD"/>
						<stop  offset="0.5207" style="stop-color:#FF9661"/>
						<stop  offset="1" style="stop-color:#E74A69"/>
					</linearGradient>
					<path style="fill:url(#SVGID_34_);" d="M14.414,30.685h-0.573c-0.029,0-0.052-0.023-0.052-0.052V30.06
						c0-0.029,0.024-0.052,0.052-0.052h0.573c0.029,0,0.052,0.024,0.052,0.052v0.573C14.466,30.662,14.442,30.685,14.414,30.685z"/>
					
						<linearGradient id="SVGID_35_" gradientUnits="userSpaceOnUse" x1="3761.135" y1="41.741" x2="3761.135" y2="13.6717" gradientTransform="matrix(1 0 0 1 -3745.834 0)">
						<stop  offset="0.0176" style="stop-color:#EDD7AD"/>
						<stop  offset="0.5207" style="stop-color:#FF9661"/>
						<stop  offset="1" style="stop-color:#E74A69"/>
					</linearGradient>
					<path style="fill:url(#SVGID_35_);" d="M15.588,30.685h-0.573c-0.029,0-0.052-0.023-0.052-0.052V30.06
						c0-0.029,0.023-0.052,0.052-0.052h0.573c0.029,0,0.052,0.024,0.052,0.052v0.573C15.64,30.662,15.616,30.685,15.588,30.685z"/>
				</g>
				<g>
					
						<linearGradient id="SVGID_36_" gradientUnits="userSpaceOnUse" x1="3756.439" y1="41.7411" x2="3756.439" y2="13.6718" gradientTransform="matrix(1 0 0 1 -3745.834 0)">
						<stop  offset="0.0176" style="stop-color:#EDD7AD"/>
						<stop  offset="0.5207" style="stop-color:#FF9661"/>
						<stop  offset="1" style="stop-color:#E74A69"/>
					</linearGradient>
					<path style="fill:url(#SVGID_36_);" d="M10.892,31.922h-0.573c-0.029,0-0.052-0.024-0.052-0.052v-0.573
						c0-0.029,0.023-0.052,0.052-0.052h0.573c0.029,0,0.052,0.023,0.052,0.052v0.573C10.944,31.898,10.92,31.922,10.892,31.922z"/>
					
						<linearGradient id="SVGID_37_" gradientUnits="userSpaceOnUse" x1="3757.613" y1="41.7411" x2="3757.613" y2="13.6718" gradientTransform="matrix(1 0 0 1 -3745.834 0)">
						<stop  offset="0.0176" style="stop-color:#EDD7AD"/>
						<stop  offset="0.5207" style="stop-color:#FF9661"/>
						<stop  offset="1" style="stop-color:#E74A69"/>
					</linearGradient>
					<path style="fill:url(#SVGID_37_);" d="M12.066,31.922h-0.573c-0.029,0-0.052-0.024-0.052-0.052v-0.573
						c0-0.029,0.023-0.052,0.052-0.052h0.573c0.029,0,0.052,0.023,0.052,0.052v0.573C12.118,31.898,12.094,31.922,12.066,31.922z"/>
					
						<linearGradient id="SVGID_38_" gradientUnits="userSpaceOnUse" x1="3758.7871" y1="41.7411" x2="3758.7871" y2="13.6718" gradientTransform="matrix(1 0 0 1 -3745.834 0)">
						<stop  offset="0.0176" style="stop-color:#EDD7AD"/>
						<stop  offset="0.5207" style="stop-color:#FF9661"/>
						<stop  offset="1" style="stop-color:#E74A69"/>
					</linearGradient>
					<path style="fill:url(#SVGID_38_);" d="M13.24,31.922h-0.573c-0.029,0-0.052-0.024-0.052-0.052v-0.573
						c0-0.029,0.024-0.052,0.052-0.052h0.573c0.029,0,0.052,0.023,0.052,0.052v0.573C13.292,31.898,13.268,31.922,13.24,31.922z"/>
					
						<linearGradient id="SVGID_39_" gradientUnits="userSpaceOnUse" x1="3759.9609" y1="41.7411" x2="3759.9609" y2="13.6718" gradientTransform="matrix(1 0 0 1 -3745.834 0)">
						<stop  offset="0.0176" style="stop-color:#EDD7AD"/>
						<stop  offset="0.5207" style="stop-color:#FF9661"/>
						<stop  offset="1" style="stop-color:#E74A69"/>
					</linearGradient>
					<path style="fill:url(#SVGID_39_);" d="M14.414,31.922h-0.573c-0.029,0-0.052-0.024-0.052-0.052v-0.573
						c0-0.029,0.024-0.052,0.052-0.052h0.573c0.029,0,0.052,0.023,0.052,0.052v0.573C14.466,31.898,14.442,31.922,14.414,31.922z"/>
					
						<linearGradient id="SVGID_40_" gradientUnits="userSpaceOnUse" x1="3761.135" y1="41.7411" x2="3761.135" y2="13.6718" gradientTransform="matrix(1 0 0 1 -3745.834 0)">
						<stop  offset="0.0176" style="stop-color:#EDD7AD"/>
						<stop  offset="0.5207" style="stop-color:#FF9661"/>
						<stop  offset="1" style="stop-color:#E74A69"/>
					</linearGradient>
					<path style="fill:url(#SVGID_40_);" d="M15.588,31.922h-0.573c-0.029,0-0.052-0.024-0.052-0.052v-0.573
						c0-0.029,0.023-0.052,0.052-0.052h0.573c0.029,0,0.052,0.023,0.052,0.052v0.573C15.64,31.898,15.616,31.922,15.588,31.922z"/>
				</g>
				<g>
					
						<linearGradient id="SVGID_41_" gradientUnits="userSpaceOnUse" x1="3756.439" y1="41.7425" x2="3756.439" y2="13.669" gradientTransform="matrix(1 0 0 1 -3745.834 0)">
						<stop  offset="0.0176" style="stop-color:#EDD7AD"/>
						<stop  offset="0.5207" style="stop-color:#FF9661"/>
						<stop  offset="1" style="stop-color:#E74A69"/>
					</linearGradient>
					<path style="fill:url(#SVGID_41_);" d="M10.892,33.159h-0.573c-0.029,0-0.052-0.023-0.052-0.052v-0.573
						c0-0.029,0.023-0.052,0.052-0.052h0.573c0.029,0,0.052,0.024,0.052,0.052v0.573C10.944,33.135,10.92,33.159,10.892,33.159z"/>
					
						<linearGradient id="SVGID_42_" gradientUnits="userSpaceOnUse" x1="3757.613" y1="41.7425" x2="3757.613" y2="13.669" gradientTransform="matrix(1 0 0 1 -3745.834 0)">
						<stop  offset="0.0176" style="stop-color:#EDD7AD"/>
						<stop  offset="0.5207" style="stop-color:#FF9661"/>
						<stop  offset="1" style="stop-color:#E74A69"/>
					</linearGradient>
					<path style="fill:url(#SVGID_42_);" d="M12.066,33.159h-0.573c-0.029,0-0.052-0.023-0.052-0.052v-0.573
						c0-0.029,0.023-0.052,0.052-0.052h0.573c0.029,0,0.052,0.024,0.052,0.052v0.573C12.118,33.135,12.094,33.159,12.066,33.159z"/>
					
						<linearGradient id="SVGID_43_" gradientUnits="userSpaceOnUse" x1="3758.7871" y1="41.7425" x2="3758.7871" y2="13.669" gradientTransform="matrix(1 0 0 1 -3745.834 0)">
						<stop  offset="0.0176" style="stop-color:#EDD7AD"/>
						<stop  offset="0.5207" style="stop-color:#FF9661"/>
						<stop  offset="1" style="stop-color:#E74A69"/>
					</linearGradient>
					<path style="fill:url(#SVGID_43_);" d="M13.24,33.159h-0.573c-0.029,0-0.052-0.023-0.052-0.052v-0.573
						c0-0.029,0.024-0.052,0.052-0.052h0.573c0.029,0,0.052,0.024,0.052,0.052v0.573C13.292,33.135,13.268,33.159,13.24,33.159z"/>
					
						<linearGradient id="SVGID_44_" gradientUnits="userSpaceOnUse" x1="3759.9609" y1="41.7425" x2="3759.9609" y2="13.669" gradientTransform="matrix(1 0 0 1 -3745.834 0)">
						<stop  offset="0.0176" style="stop-color:#EDD7AD"/>
						<stop  offset="0.5207" style="stop-color:#FF9661"/>
						<stop  offset="1" style="stop-color:#E74A69"/>
					</linearGradient>
					<path style="fill:url(#SVGID_44_);" d="M14.414,33.159h-0.573c-0.029,0-0.052-0.023-0.052-0.052v-0.573
						c0-0.029,0.024-0.052,0.052-0.052h0.573c0.029,0,0.052,0.024,0.052,0.052v0.573C14.466,33.135,14.442,33.159,14.414,33.159z"/>
					
						<linearGradient id="SVGID_45_" gradientUnits="userSpaceOnUse" x1="3761.135" y1="41.7425" x2="3761.135" y2="13.669" gradientTransform="matrix(1 0 0 1 -3745.834 0)">
						<stop  offset="0.0176" style="stop-color:#EDD7AD"/>
						<stop  offset="0.5207" style="stop-color:#FF9661"/>
						<stop  offset="1" style="stop-color:#E74A69"/>
					</linearGradient>
					<path style="fill:url(#SVGID_45_);" d="M15.588,33.159h-0.573c-0.029,0-0.052-0.023-0.052-0.052v-0.573
						c0-0.029,0.023-0.052,0.052-0.052h0.573c0.029,0,0.052,0.024,0.052,0.052v0.573C15.64,33.135,15.616,33.159,15.588,33.159z"/>
				</g>
				<g>
					
						<linearGradient id="SVGID_46_" gradientUnits="userSpaceOnUse" x1="3756.439" y1="41.7413" x2="3756.439" y2="13.6719" gradientTransform="matrix(1 0 0 1 -3745.834 0)">
						<stop  offset="0.0176" style="stop-color:#EDD7AD"/>
						<stop  offset="0.5207" style="stop-color:#FF9661"/>
						<stop  offset="1" style="stop-color:#E74A69"/>
					</linearGradient>
					<path style="fill:url(#SVGID_46_);" d="M10.892,34.395h-0.573c-0.029,0-0.052-0.023-0.052-0.052V33.77
						c0-0.029,0.023-0.052,0.052-0.052h0.573c0.029,0,0.052,0.023,0.052,0.052v0.573C10.944,34.372,10.92,34.395,10.892,34.395z"/>
					
						<linearGradient id="SVGID_47_" gradientUnits="userSpaceOnUse" x1="3757.613" y1="41.7413" x2="3757.613" y2="13.6719" gradientTransform="matrix(1 0 0 1 -3745.834 0)">
						<stop  offset="0.0176" style="stop-color:#EDD7AD"/>
						<stop  offset="0.5207" style="stop-color:#FF9661"/>
						<stop  offset="1" style="stop-color:#E74A69"/>
					</linearGradient>
					<path style="fill:url(#SVGID_47_);" d="M12.066,34.395h-0.573c-0.029,0-0.052-0.023-0.052-0.052V33.77
						c0-0.029,0.023-0.052,0.052-0.052h0.573c0.029,0,0.052,0.023,0.052,0.052v0.573C12.118,34.372,12.094,34.395,12.066,34.395z"/>
					
						<linearGradient id="SVGID_48_" gradientUnits="userSpaceOnUse" x1="3758.7871" y1="41.7413" x2="3758.7871" y2="13.6719" gradientTransform="matrix(1 0 0 1 -3745.834 0)">
						<stop  offset="0.0176" style="stop-color:#EDD7AD"/>
						<stop  offset="0.5207" style="stop-color:#FF9661"/>
						<stop  offset="1" style="stop-color:#E74A69"/>
					</linearGradient>
					<path style="fill:url(#SVGID_48_);" d="M13.24,34.395h-0.573c-0.029,0-0.052-0.023-0.052-0.052V33.77
						c0-0.029,0.024-0.052,0.052-0.052h0.573c0.029,0,0.052,0.023,0.052,0.052v0.573C13.292,34.372,13.268,34.395,13.24,34.395z"/>
					
						<linearGradient id="SVGID_49_" gradientUnits="userSpaceOnUse" x1="3759.9609" y1="41.7413" x2="3759.9609" y2="13.6719" gradientTransform="matrix(1 0 0 1 -3745.834 0)">
						<stop  offset="0.0176" style="stop-color:#EDD7AD"/>
						<stop  offset="0.5207" style="stop-color:#FF9661"/>
						<stop  offset="1" style="stop-color:#E74A69"/>
					</linearGradient>
					<path style="fill:url(#SVGID_49_);" d="M14.414,34.395h-0.573c-0.029,0-0.052-0.023-0.052-0.052V33.77
						c0-0.029,0.024-0.052,0.052-0.052h0.573c0.029,0,0.052,0.023,0.052,0.052v0.573C14.466,34.372,14.442,34.395,14.414,34.395z"/>
					
						<linearGradient id="SVGID_50_" gradientUnits="userSpaceOnUse" x1="3761.135" y1="41.7413" x2="3761.135" y2="13.6719" gradientTransform="matrix(1 0 0 1 -3745.834 0)">
						<stop  offset="0.0176" style="stop-color:#EDD7AD"/>
						<stop  offset="0.5207" style="stop-color:#FF9661"/>
						<stop  offset="1" style="stop-color:#E74A69"/>
					</linearGradient>
					<path style="fill:url(#SVGID_50_);" d="M15.588,34.395h-0.573c-0.029,0-0.052-0.023-0.052-0.052V33.77
						c0-0.029,0.023-0.052,0.052-0.052h0.573c0.029,0,0.052,0.023,0.052,0.052v0.573C15.64,34.372,15.616,34.395,15.588,34.395z"/>
				</g>
				<g>
					
						<linearGradient id="SVGID_51_" gradientUnits="userSpaceOnUse" x1="3756.439" y1="41.7422" x2="3756.439" y2="13.6687" gradientTransform="matrix(1 0 0 1 -3745.834 0)">
						<stop  offset="0.0176" style="stop-color:#EDD7AD"/>
						<stop  offset="0.5207" style="stop-color:#FF9661"/>
						<stop  offset="1" style="stop-color:#E74A69"/>
					</linearGradient>
					<path style="fill:url(#SVGID_51_);" d="M10.892,35.632h-0.573c-0.029,0-0.052-0.024-0.052-0.052v-0.573
						c0-0.029,0.023-0.052,0.052-0.052h0.573c0.029,0,0.052,0.024,0.052,0.052v0.573C10.944,35.608,10.92,35.632,10.892,35.632z"/>
					
						<linearGradient id="SVGID_52_" gradientUnits="userSpaceOnUse" x1="3757.613" y1="41.7422" x2="3757.613" y2="13.6687" gradientTransform="matrix(1 0 0 1 -3745.834 0)">
						<stop  offset="0.0176" style="stop-color:#EDD7AD"/>
						<stop  offset="0.5207" style="stop-color:#FF9661"/>
						<stop  offset="1" style="stop-color:#E74A69"/>
					</linearGradient>
					<path style="fill:url(#SVGID_52_);" d="M12.066,35.632h-0.573c-0.029,0-0.052-0.024-0.052-0.052v-0.573
						c0-0.029,0.023-0.052,0.052-0.052h0.573c0.029,0,0.052,0.024,0.052,0.052v0.573C12.118,35.608,12.094,35.632,12.066,35.632z"/>
					
						<linearGradient id="SVGID_53_" gradientUnits="userSpaceOnUse" x1="3758.7871" y1="41.7422" x2="3758.7871" y2="13.6687" gradientTransform="matrix(1 0 0 1 -3745.834 0)">
						<stop  offset="0.0176" style="stop-color:#EDD7AD"/>
						<stop  offset="0.5207" style="stop-color:#FF9661"/>
						<stop  offset="1" style="stop-color:#E74A69"/>
					</linearGradient>
					<path style="fill:url(#SVGID_53_);" d="M13.24,35.632h-0.573c-0.029,0-0.052-0.024-0.052-0.052v-0.573
						c0-0.029,0.024-0.052,0.052-0.052h0.573c0.029,0,0.052,0.024,0.052,0.052v0.573C13.292,35.608,13.268,35.632,13.24,35.632z"/>
					
						<linearGradient id="SVGID_54_" gradientUnits="userSpaceOnUse" x1="3759.9609" y1="41.7422" x2="3759.9609" y2="13.6687" gradientTransform="matrix(1 0 0 1 -3745.834 0)">
						<stop  offset="0.0176" style="stop-color:#EDD7AD"/>
						<stop  offset="0.5207" style="stop-color:#FF9661"/>
						<stop  offset="1" style="stop-color:#E74A69"/>
					</linearGradient>
					<path style="fill:url(#SVGID_54_);" d="M14.414,35.632h-0.573c-0.029,0-0.052-0.024-0.052-0.052v-0.573
						c0-0.029,0.024-0.052,0.052-0.052h0.573c0.029,0,0.052,0.024,0.052,0.052v0.573C14.466,35.608,14.442,35.632,14.414,35.632z"/>
					
						<linearGradient id="SVGID_55_" gradientUnits="userSpaceOnUse" x1="3761.135" y1="41.7422" x2="3761.135" y2="13.6687" gradientTransform="matrix(1 0 0 1 -3745.834 0)">
						<stop  offset="0.0176" style="stop-color:#EDD7AD"/>
						<stop  offset="0.5207" style="stop-color:#FF9661"/>
						<stop  offset="1" style="stop-color:#E74A69"/>
					</linearGradient>
					<path style="fill:url(#SVGID_55_);" d="M15.588,35.632h-0.573c-0.029,0-0.052-0.024-0.052-0.052v-0.573
						c0-0.029,0.023-0.052,0.052-0.052h0.573c0.029,0,0.052,0.024,0.052,0.052v0.573C15.64,35.608,15.616,35.632,15.588,35.632z"/>
				</g>
				<g>
					
						<linearGradient id="SVGID_56_" gradientUnits="userSpaceOnUse" x1="3756.439" y1="41.7413" x2="3756.439" y2="13.672" gradientTransform="matrix(1 0 0 1 -3745.834 0)">
						<stop  offset="0.0176" style="stop-color:#EDD7AD"/>
						<stop  offset="0.5207" style="stop-color:#FF9661"/>
						<stop  offset="1" style="stop-color:#E74A69"/>
					</linearGradient>
					<path style="fill:url(#SVGID_56_);" d="M10.892,36.868h-0.573c-0.029,0-0.052-0.023-0.052-0.052v-0.573
						c0-0.029,0.023-0.052,0.052-0.052h0.573c0.029,0,0.052,0.023,0.052,0.052v0.573C10.944,36.845,10.92,36.868,10.892,36.868z"/>
					
						<linearGradient id="SVGID_57_" gradientUnits="userSpaceOnUse" x1="3757.613" y1="41.7413" x2="3757.613" y2="13.672" gradientTransform="matrix(1 0 0 1 -3745.834 0)">
						<stop  offset="0.0176" style="stop-color:#EDD7AD"/>
						<stop  offset="0.5207" style="stop-color:#FF9661"/>
						<stop  offset="1" style="stop-color:#E74A69"/>
					</linearGradient>
					<path style="fill:url(#SVGID_57_);" d="M12.066,36.868h-0.573c-0.029,0-0.052-0.023-0.052-0.052v-0.573
						c0-0.029,0.023-0.052,0.052-0.052h0.573c0.029,0,0.052,0.023,0.052,0.052v0.573C12.118,36.845,12.094,36.868,12.066,36.868z"/>
					
						<linearGradient id="SVGID_58_" gradientUnits="userSpaceOnUse" x1="3758.7871" y1="41.7413" x2="3758.7871" y2="13.672" gradientTransform="matrix(1 0 0 1 -3745.834 0)">
						<stop  offset="0.0176" style="stop-color:#EDD7AD"/>
						<stop  offset="0.5207" style="stop-color:#FF9661"/>
						<stop  offset="1" style="stop-color:#E74A69"/>
					</linearGradient>
					<path style="fill:url(#SVGID_58_);" d="M13.24,36.868h-0.573c-0.029,0-0.052-0.023-0.052-0.052v-0.573
						c0-0.029,0.024-0.052,0.052-0.052h0.573c0.029,0,0.052,0.023,0.052,0.052v0.573C13.292,36.845,13.268,36.868,13.24,36.868z"/>
					
						<linearGradient id="SVGID_59_" gradientUnits="userSpaceOnUse" x1="3759.9609" y1="41.7413" x2="3759.9609" y2="13.672" gradientTransform="matrix(1 0 0 1 -3745.834 0)">
						<stop  offset="0.0176" style="stop-color:#EDD7AD"/>
						<stop  offset="0.5207" style="stop-color:#FF9661"/>
						<stop  offset="1" style="stop-color:#E74A69"/>
					</linearGradient>
					<path style="fill:url(#SVGID_59_);" d="M14.414,36.868h-0.573c-0.029,0-0.052-0.023-0.052-0.052v-0.573
						c0-0.029,0.024-0.052,0.052-0.052h0.573c0.029,0,0.052,0.023,0.052,0.052v0.573C14.466,36.845,14.442,36.868,14.414,36.868z"/>
					
						<linearGradient id="SVGID_60_" gradientUnits="userSpaceOnUse" x1="3761.135" y1="41.7413" x2="3761.135" y2="13.672" gradientTransform="matrix(1 0 0 1 -3745.834 0)">
						<stop  offset="0.0176" style="stop-color:#EDD7AD"/>
						<stop  offset="0.5207" style="stop-color:#FF9661"/>
						<stop  offset="1" style="stop-color:#E74A69"/>
					</linearGradient>
					<path style="fill:url(#SVGID_60_);" d="M15.588,36.868h-0.573c-0.029,0-0.052-0.023-0.052-0.052v-0.573
						c0-0.029,0.023-0.052,0.052-0.052h0.573c0.029,0,0.052,0.023,0.052,0.052v0.573C15.64,36.845,15.616,36.868,15.588,36.868z"/>
				</g>
			</g>
			
				<linearGradient id="SVGID_61_" gradientUnits="userSpaceOnUse" x1="3768.5464" y1="39.5075" x2="3768.5464" y2="22.3615" gradientTransform="matrix(1 0 0 1 -3745.834 0)">
				<stop  offset="0.0176" style="stop-color:#EDD7AD"/>
				<stop  offset="0.5207" style="stop-color:#FF9661"/>
				<stop  offset="1" style="stop-color:#E74A69"/>
			</linearGradient>
			<path style="fill:url(#SVGID_61_);" d="M23.458,32.034c-0.338,0-0.612,0.274-0.612,0.612v2.972h-4.22l-0.003,0.154
				c-0.028,1.501,1.181,2.732,2.681,2.732h1.82v-1.123h3.678v-5.347H23.458z"/>
			
				<linearGradient id="SVGID_62_" gradientUnits="userSpaceOnUse" x1="3749.6313" y1="28.5294" x2="3749.6313" y2="28.2087" gradientTransform="matrix(1 0 0 1 -3745.834 0)">
				<stop  offset="0.0176" style="stop-color:#EDD7AD"/>
				<stop  offset="0.5207" style="stop-color:#FF9661"/>
				<stop  offset="1" style="stop-color:#E74A69"/>
			</linearGradient>
			<path style="opacity:0.49;fill:url(#SVGID_62_);" d="M3.657,28.358c-0.039,0.011,0.03,0.066,0.11,0.121
				c0.001-0.001,0.002-0.002,0.002-0.002l0.064-0.015c0.047-0.011,0.087-0.036,0.117-0.069C3.948,28.392,3.736,28.337,3.657,28.358z
				"/>
		</g>
	</g>
	<linearGradient id="SVGID_63_" gradientUnits="userSpaceOnUse" x1="38.3544" y1="9.5878" x2="38.3544" y2="-2.7232">
		<stop  offset="0.0176" style="stop-color:#EDD7AD"/>
		<stop  offset="0.5207" style="stop-color:#FF9661"/>
		<stop  offset="1" style="stop-color:#E74A69"/>
	</linearGradient>
	<path style="fill:url(#SVGID_63_);" d="M38.153,4.888V3.85h0.402v1.039c0,0.625,0.401,1.185,0.997,1.371
		c1.691,0.525,2.905,2.132,2.835,4.011c-0.08,2.117-1.815,3.828-3.933,3.879c-2.275,0.055-4.136-1.772-4.136-4.035
		c0-1.801,1.18-3.327,2.809-3.846C37.734,6.075,38.153,5.524,38.153,4.888z"/>
	<linearGradient id="SVGID_64_" gradientUnits="userSpaceOnUse" x1="38.3544" y1="18.7753" x2="38.3544" y2="-4.7355">
		<stop  offset="0.0176" style="stop-color:#EDD7AD"/>
		<stop  offset="0.5207" style="stop-color:#FF9661"/>
		<stop  offset="1" style="stop-color:#E74A69"/>
	</linearGradient>
	<circle style="fill:url(#SVGID_64_);" cx="38.354" cy="10.114" r="4.036"/>
	<g>
		<g>
			<path id="XMLID_69_" style="fill:#003A42;" d="M27.703,27.982c0,0,18.033,11.068,30.251-5.079l-1.423-0.799
				c0,0-12.036,7.246-19.646,1.113c-1.828-1.473-4.506-1.173-5.958,0.671L27.703,27.982z"/>
			<g>
				<linearGradient id="SVGID_65_" gradientUnits="userSpaceOnUse" x1="31.8409" y1="27.2738" x2="43.2971" y2="27.2738">
					<stop  offset="0" style="stop-color:#003A42"/>
					<stop  offset="1" style="stop-color:#002B30"/>
				</linearGradient>
				<path style="fill:url(#SVGID_65_);" d="M39.104,28.41c-0.643-3.73-2.883-5.506-2.883-5.506l0,0l-4.179,0.119
					c-0.068,0.042-0.135,0.086-0.201,0.131l0.527,7.066c2.72,0.956,6.958,1.643,10.93,1.36C41.545,31.475,39.509,30.76,39.104,28.41
					z"/>
			</g>
			<path style="fill:#F16C52;" d="M28.734,35.763c0,0,8.388-2.756,7.715-8.869c-0.673-6.113-6.095-5.63-7.187-5.342
				c0,0,2.07-1.886,5.048-0.814c2.977,1.073,5.896,5.595,3.366,10.945c-2.53,5.35-12.327,7.837-12.327,7.837"/>
			<path style="fill:#0B143A;" d="M57.955,22.903c0,0,1.358-1.081,1.457-1.549c0,0,0.354,0.887,0.647,0.658
				c0.293-0.229,0.583-1.213-0.26-2.048c-0.843-0.834-1.891-1.128-2.37-0.216c-0.479,0.911-0.283,2.013-0.897,2.356"/>
		</g>
		<path id="XMLID_2999_" style="fill:#F16C52;" d="M23.981,44.779c0,0-7.741,0.972-7.29-5.832c0.34-5.141,1.486-15.997,9.719-15.997
			v1.469"/>
		<linearGradient id="SVGID_66_" gradientUnits="userSpaceOnUse" x1="18.301" y1="36.8926" x2="33.9688" y2="12.6197">
			<stop  offset="0" style="stop-color:#F16C52"/>
			<stop  offset="0.2115" style="stop-color:#EF5644"/>
			<stop  offset="0.4691" style="stop-color:#ED4337"/>
			<stop  offset="0.7307" style="stop-color:#EC3730"/>
			<stop  offset="1" style="stop-color:#EC332D"/>
		</linearGradient>
		<path style="fill:url(#SVGID_66_);" d="M25.268,34l0.841-7.051l-4.11-0.465l-2.269,0.295c-1.513,2.379-2.258,5.499-2.65,8.262
			c0.001-0.002,1.056-2.982,3.456-2.597c2.401,0.386-0.863,4.411,2.913,2.827C24.133,34.985,24.736,34.538,25.268,34z"/>
		<path id="XMLID_2997_" style="fill:#003A42;" d="M33.919,8.776c0,0,1.97-0.768,2.757,2.824l-3.395,0.742L33.919,8.776z"/>
		<polyline id="XMLID_2995_" style="fill:#003A42;" points="31.395,20.283 35.866,18.338 38.503,51.354 29.082,52.205 
			31.262,20.876 		"/>
		<polyline id="XMLID_70_" style="fill:#003A42;" points="31.395,20.283 35.866,18.338 38.503,51.354 29.082,52.205 31.262,20.876 
					"/>
		<path style="fill:#F9AA8F;" d="M37.743,15.214c-0.783-7.882-5.671-4.905-5.671-4.905v5.746c-0.305,2.036-1.154,3.488-1.154,3.488
			c0,1.736,3.578,2.941,3.578,2.941l0-2.685c0-0.31,0.233-0.567,0.541-0.605c0.277-0.035,0.505-0.101,0.64-0.211
			c0.395-0.321,0.716-1.808,0.865-2.614c0.051-0.275,0.278-0.48,0.557-0.506C37.423,15.832,37.791,15.694,37.743,15.214z"/>
		<linearGradient id="SVGID_67_" gradientUnits="userSpaceOnUse" x1="40.9379" y1="21.7394" x2="26.3159" y2="10.5478">
			<stop  offset="0" style="stop-color:#F9AA8F"/>
			<stop  offset="1" style="stop-color:#F78E6B"/>
		</linearGradient>
		<path style="fill:url(#SVGID_67_);" d="M37.11,15.396c-0.019-0.428-0.097-0.855-0.097-0.855l-0.337-1.595l-2.613,0.291
			l-0.931,1.986l-0.086,0.157l-0.396,4.371l0.257,1.372l0.885,0.072c0,0,0.487,0.035,0.39-0.619
			c-0.097-0.654,0.359-1.011,0.359-1.011l0.001-0.001c0.083-0.198,0.268-0.344,0.493-0.372c0.141-0.018,0.269-0.044,0.379-0.079
			c-1.425,0.048-0.931-2.182-0.877-3.318c0.054-1.136,1.63-1.629,1.876-1.094c0.245,0.532,0.12,1.697,0.118,1.714
			c0.003-0.016,0.006-0.033,0.009-0.048c0.051-0.275,0.278-0.48,0.557-0.506c0.171-0.016,0.353-0.062,0.481-0.172
			C37.383,15.788,37.126,15.754,37.11,15.396z"/>
		<path style="fill:#0B143A;" d="M36.948,14.875l0.749-0.063c-0.109-0.891-0.275-1.631-0.48-2.246l-4.085-0.651l1.136,3.098
			l0.476,0.24c0.316,0.16,0.688,0.169,1.011,0.024l0.495-0.222C36.472,14.957,36.707,14.896,36.948,14.875z"/>
		<path style="fill:#F27C1C;" d="M34.773,9.812c0,0,3.072,0.709,2.786,2.53c-0.223,1.419-2.117,1.697-2.941,1.751
			c-0.152,0.01-0.26,0.162-0.206,0.305c0.085,0.226,0.113,0.562-0.184,0.941c-0.127,0.162-0.202,0.36-0.189,0.566
			c0.02,0.311-0.053,0.76-0.597,0.887c-0.857,0.2-1.612-2.03-1.612-2.03l0.726-3.459"/>
		<linearGradient id="SVGID_68_" gradientUnits="userSpaceOnUse" x1="39.237" y1="17.0573" x2="27.7919" y2="8.2973">
			<stop  offset="0" style="stop-color:#F27C1C"/>
			<stop  offset="0.4156" style="stop-color:#EA6C18"/>
			<stop  offset="1" style="stop-color:#DA4F11"/>
		</linearGradient>
		<path style="fill:url(#SVGID_68_);" d="M34.705,13.406c0.461-0.1,0.868-0.057,1.54-0.459c0.672-0.402-1.258-0.47-1.266-1.842
			c-0.008-1.343,1.349-0.675,1.407-0.646c-0.764-0.45-1.612-0.647-1.612-0.647l-0.961,0.647l-1.445,5.486
			c0.29,0.497,0.671,0.943,1.075,0.848c0.544-0.127,0.616-0.576,0.597-0.887c-0.013-0.206,0.062-0.404,0.189-0.566
			c0.297-0.379,0.269-0.716,0.184-0.941c-0.054-0.143,0.054-0.295,0.206-0.305c0.105-0.007,0.227-0.017,0.36-0.033
			C33.998,14.157,34.244,13.506,34.705,13.406z"/>
		<path style="fill:#211A4C;" d="M23.009,41.377l-0.651,5.505c0,0,2.116,8.452,15.953,9.447c1.515,0.109,2.876,0.891,3.767,2.083
			c2.091-0.774,4.064-1.79,5.885-3.016C39.931,40.412,23.009,41.377,23.009,41.377z"/>
		<linearGradient id="SVGID_69_" gradientUnits="userSpaceOnUse" x1="35.9217" y1="76.2765" x2="35.614" y2="43.35">
			<stop  offset="0" style="stop-color:#1C1651"/>
			<stop  offset="1" style="stop-color:#130F38"/>
		</linearGradient>
		<path style="fill:url(#SVGID_69_);" d="M32.934,42.939l-1.103,0.337l-6.483,4.648l-0.09,3.418
			c2.278,2.205,6.247,4.498,13.053,4.988c1.515,0.109,2.876,0.891,3.767,2.083c0.073-0.027,0.144-0.058,0.217-0.086
			c-0.702-2.012-1.678-5.611,0.009-6.393c2.37-1.098,3.827,0.833,3.827,0.833C42.375,47.277,37.344,44.42,32.934,42.939z"/>
		<linearGradient id="XMLID_2_" gradientUnits="userSpaceOnUse" x1="27.8148" y1="36.0649" x2="35.8485" y2="36.0649">
			<stop  offset="0" style="stop-color:#6E7D87"/>
			<stop  offset="0.0463" style="stop-color:#6F7E88"/>
			<stop  offset="1" style="stop-color:#83939B"/>
		</linearGradient>
		<path id="XMLID_2780_" style="fill:url(#XMLID_2_);" d="M35.176,22.971l0.672,20.764c0.009,0.285-0.156,0.549-0.421,0.657
			c-2.183,0.889-6.345,7.505-6.345,7.505s-5.277-40.68,5.706-29.822C35.027,22.312,35.165,22.634,35.176,22.971z"/>
		<linearGradient id="SVGID_70_" gradientUnits="userSpaceOnUse" x1="39.756" y1="37.8532" x2="21.8003" y2="30.3792">
			<stop  offset="0" style="stop-color:#6E7D87"/>
			<stop  offset="0.0463" style="stop-color:#6F7E88"/>
			<stop  offset="1" style="stop-color:#83939B"/>
		</linearGradient>
		<path style="fill:url(#SVGID_70_);" d="M34.53,41.835c-1.572-2.144-0.486-9.033,0.314-10.749c0.8-1.715-1.444-5.203-1.051-7.976
			c0.244-1.728,1.32-0.5,1.322-0.499c-0.064-0.201-0.174-0.386-0.326-0.536c-3.006-2.972-4.794-2.083-5.805,0.775l2.275,25.869
			c1.346-1.832,3.028-3.863,4.17-4.328C35.839,43.976,36.102,43.979,34.53,41.835z"/>
		<path style="fill:#211A4C;" d="M27.711,59.76c5.664-6.318,5.538-10.964,5.538-10.964l-11.187,0.868c0,0,0.308,2.919-2.188,7.551
			C22.307,58.428,24.94,59.297,27.711,59.76z"/>
		<linearGradient id="XMLID_3_" gradientUnits="userSpaceOnUse" x1="20.004" y1="53.0954" x2="29.0822" y2="53.0954">
			<stop  offset="0" style="stop-color:#6E7D87"/>
			<stop  offset="0.0463" style="stop-color:#6F7E88"/>
			<stop  offset="1" style="stop-color:#83939B"/>
		</linearGradient>
		<path id="XMLID_2777_" style="fill:url(#XMLID_3_);" d="M29.082,51.897c0,0-1.49,6.217-8.709,3.722
			c-0.381-0.132-0.495-0.621-0.211-0.907c0.813-0.82,1.837-2.572,1.88-4.731L29.082,51.897z"/>
		<g>
			<linearGradient id="SVGID_71_" gradientUnits="userSpaceOnUse" x1="24.652" y1="56.558" x2="25.5667" y2="47.4104">
				<stop  offset="0" style="stop-color:#6E7D87"/>
				<stop  offset="0.0463" style="stop-color:#6F7E88"/>
				<stop  offset="1" style="stop-color:#83939B"/>
			</linearGradient>
			<path style="fill:url(#SVGID_71_);" d="M22.042,49.981c-0.029,1.457-0.505,2.728-1.062,3.653
				c0.308-0.454,1.298-1.632,2.887-0.908c1.374,0.626,3.091,1.366,4.292,1.11c0.698-1.001,0.923-1.939,0.923-1.939L22.042,49.981z"
				/>
		</g>
		<path id="XMLID_2775_" style="fill:#003A42;" d="M21.999,50.693c0,0,1.068-19.407,4.283-30.249
			c0.234-0.789,5.79-1.639,7.162-2.259c0,0,0,25.004,0,30.611C33.443,54.404,21.999,50.693,21.999,50.693z"/>
		<linearGradient id="SVGID_72_" gradientUnits="userSpaceOnUse" x1="21.9988" y1="38.9151" x2="30.0846" y2="38.9151">
			<stop  offset="0" style="stop-color:#003A42"/>
			<stop  offset="1" style="stop-color:#002B30"/>
		</linearGradient>
		<path style="fill:url(#SVGID_72_);" d="M30.041,25.933l-5.303,1.088c-2.024,10.666-2.74,23.672-2.74,23.672
			s3.815,1.237,7.039,1.203c-4.103,0.006-4.337-3.076-3.098-4.016c1.243-0.943,3.902-2.984,0.729-5.36s-3.602-5.789,0.214-9.519
			C30.699,29.271,30.041,25.933,30.041,25.933z"/>
		<path id="XMLID_2767_" style="fill:#003A42;" d="M33.443,19.226c0,0-0.162-7.63,1.33-9.414c2.131-2.545-8.062-1.595-8.577,11.966
			C26.197,21.778,30.227,23.433,33.443,19.226z"/>
		<linearGradient id="SVGID_73_" gradientUnits="userSpaceOnUse" x1="26.1968" y1="16.9415" x2="31.4422" y2="16.9415">
			<stop  offset="0" style="stop-color:#003A42"/>
			<stop  offset="1" style="stop-color:#002B30"/>
		</linearGradient>
		<path style="fill:url(#SVGID_73_);" d="M26.197,22.752c0,0,0.469,0.192,1.213,0.279l1.573-0.547c0,0-1.757-1.887-0.599-4.073
			c1.158-2.187,4.295-2.316,2.533-3.473c-1.609-1.057-0.185-3.485,0.388-4.085C29.002,12.524,26.448,16.137,26.197,22.752z"/>
		<g>
			<path id="XMLID_2774_" style="fill:#003A42;" d="M30.917,20.444c0,0-21.143-0.82-23.89,19.241h1.632
				c0,0,6.946-12.211,16.585-10.59c2.315,0.389,4.503-1.183,4.867-3.503L30.917,20.444z"/>
			<path style="fill:#211A4C;" d="M7.027,39.684c0,0-0.655,1.607-0.512,2.065c0,0-0.743-0.6-0.886-0.257
				c-0.143,0.343,0.086,1.344,1.229,1.658c1.143,0.314,2.201,0.057,2.172-0.972c-0.029-1.029-0.738-1.894-0.372-2.493"/>
		</g>
		<path style="fill:#162873;" d="M35.759,14.752l0.267-0.093c0.073-0.025,0.111-0.105,0.086-0.178l0,0
			c-0.059-0.169-0.244-0.259-0.413-0.2l-0.327,0.114c-0.056,0.02-0.086,0.081-0.067,0.138l0,0
			C35.37,14.718,35.573,14.816,35.759,14.752z"/>
		<path style="fill:#F16C52;" d="M22.358,35.763c0,0,8.388-2.756,7.715-8.869c-0.673-6.113-6.095-5.63-7.187-5.342
			c0,0,2.07-1.886,5.048-0.814c2.977,1.073,5.896,5.595,3.366,10.945s-12.328,7.837-12.328,7.837"/>
	</g>
</g>
</svg>
